<svg xmlns="http://www.w3.org/2000/svg" viewBox="0 0 78 58" width="78" height="58">
	<style>
		tspan { white-space:pre }
		.shp0 { fill: #ffc400 } 
	</style>
	<g id="Services">
		<g id="Title">
			<path id="Composite Path" class="shp0" d="M76.68 41.98C75.15 38.58 71.15 37.07 67.75 38.61C66.12 39.35 64.93 40.65 64.3 42.19L41.08 33.42C41.5 31.61 41.36 29.67 40.54 27.85C39.22 24.94 36.51 23.11 33.55 22.77L33.72 13.88C34.36 13.8 35.01 13.62 35.63 13.34C39.03 11.8 40.54 7.81 39 4.41C37.47 1.01 33.47 -0.5 30.07 1.04C26.68 2.57 25.16 6.57 26.7 9.97C27.66 12.09 29.58 13.48 31.72 13.84L31.55 22.77C30.68 22.87 29.81 23.1 28.96 23.48C24.56 25.47 22.6 30.65 24.59 35.06C24.72 35.35 24.87 35.63 25.03 35.9L12.17 46.06C10.24 44.18 7.29 43.56 4.68 44.74C1.29 46.27 -0.22 50.27 1.31 53.66C2.85 57.06 6.84 58.57 10.24 57.04C13.64 55.5 15.15 51.51 13.61 48.11C13.54 47.95 13.46 47.8 13.38 47.65L26.25 37.5C28.74 40.1 32.69 41 36.17 39.43C38.1 38.56 39.56 37.07 40.42 35.31L63.81 44.14C63.71 45.27 63.88 46.43 64.38 47.54C65.91 50.93 69.91 52.44 73.31 50.91C76.71 49.38 78.21 45.38 76.68 41.98ZM35.34 37.61C31.94 39.14 27.95 37.63 26.41 34.23C24.88 30.84 26.39 26.85 29.79 25.3C33.19 23.78 37.18 25.28 38.72 28.68C40.25 32.08 38.74 36.07 35.34 37.61Z" />
		</g>
	</g>
</svg>