<svg xmlns="http://www.w3.org/2000/svg" width="78" height="58" viewBox="0 0 78 58">
  <defs>
    <style>
      .cls-1 {
        fill: #ffc400;
        fill-rule: evenodd;
      }
    </style>
  </defs>
  <path id="Composite_Path" data-name="Composite Path" class="cls-1" d="M76.681,41.716a6.743,6.743,0,0,0-12.384.2L41.083,33.151a8.722,8.722,0,0,0-7.535-10.646l0.171-8.89a6.743,6.743,0,1,0-2-.038L31.55,22.5a8.752,8.752,0,0,0-6.96,12.293,8.564,8.564,0,0,0,.443.847L12.17,45.791a6.741,6.741,0,1,0,1.443,2.052c-0.071-.157-0.154-0.306-0.234-0.456L26.246,37.233A8.741,8.741,0,0,0,40.422,35.04l23.391,8.835A6.748,6.748,0,1,0,76.681,41.716ZM35.344,37.342a6.749,6.749,0,1,1,3.373-8.929A6.755,6.755,0,0,1,35.344,37.342Z"/>
</svg>
