<svg xmlns="http://www.w3.org/2000/svg" viewBox="0 0 19 19" width="19" height="19">
	<style>
		tspan { white-space:pre }
		.shp0 { fill: #ffffff } 
	</style>
	<g id="Footer">
		<g id="Forth Column">
			<g id="Social Icons">
				<path id="Dribble" class="shp0" d="M17.74 6.03C17.51 5.5 17.24 5 16.91 4.52C16.59 4.05 16.23 3.6 15.82 3.2C15.42 2.8 14.97 2.43 14.5 2.11C14.02 1.79 13.51 1.52 12.98 1.29C12.44 1.07 11.87 0.89 11.3 0.77C10.71 0.65 10.1 0.59 9.5 0.59C8.89 0.59 8.29 0.65 7.7 0.77C7.13 0.89 6.56 1.07 6.02 1.29C5.49 1.52 4.98 1.79 4.5 2.11C4.03 2.43 3.58 2.8 3.18 3.2C2.77 3.6 2.41 4.05 2.09 4.52C1.76 5 1.49 5.5 1.26 6.03C1.03 6.57 0.86 7.14 0.74 7.71C0.62 8.29 0.56 8.9 0.56 9.5C0.56 10.1 0.62 10.71 0.74 11.29C0.86 11.86 1.03 12.43 1.26 12.97C1.49 13.49 1.76 14 2.09 14.48C2.41 14.95 2.77 15.39 3.18 15.8C3.58 16.2 4.03 16.57 4.5 16.88C4.98 17.21 5.49 17.48 6.02 17.71C6.56 17.93 7.13 18.11 7.7 18.23C8.29 18.34 8.89 18.41 9.5 18.41C10.1 18.41 10.71 18.34 11.3 18.23C11.87 18.11 12.44 17.93 12.98 17.71C13.51 17.48 14.02 17.21 14.5 16.88C14.97 16.57 15.42 16.2 15.82 15.8C16.23 15.39 16.59 14.95 16.91 14.48C17.24 14 17.51 13.49 17.74 12.97C17.96 12.43 18.14 11.86 18.26 11.29C18.38 10.71 18.44 10.1 18.44 9.5C18.44 8.9 18.38 8.29 18.26 7.71C18.14 7.14 17.96 6.57 17.74 6.03ZM9.5 1.89C11.43 1.89 13.2 2.61 14.54 3.79C14.52 3.82 13.44 5.47 10.55 6.55C9.25 4.16 7.82 2.26 7.7 2.11C8.28 1.97 8.88 1.89 9.5 1.89ZM7.67 2.11L7.67 2.12C7.67 2.12 7.66 2.12 7.65 2.12C7.65 2.12 7.66 2.12 7.67 2.11ZM6.24 2.62C6.34 2.76 7.75 4.66 9.08 7C5.41 7.97 2.23 7.94 2.03 7.93C2.52 5.58 4.11 3.62 6.24 2.62ZM3.82 14.58L3.82 14.58L3.82 14.58ZM3.82 14.58C2.6 13.23 1.86 11.45 1.86 9.5C1.86 9.42 1.87 9.34 1.87 9.26C2.01 9.26 5.78 9.35 9.71 8.17C9.93 8.6 10.14 9.04 10.33 9.47C10.23 9.5 10.13 9.53 10.03 9.56C5.91 10.89 3.82 14.57 3.82 14.58ZM4.81 15.5C4.81 15.5 4.74 15.44 4.64 15.36C4.69 15.41 4.76 15.44 4.81 15.49C4.81 15.49 4.81 15.5 4.81 15.5ZM9.5 17.11C7.73 17.11 6.11 16.49 4.81 15.49C4.87 15.37 6.36 12.28 10.8 10.75C10.82 10.74 10.83 10.73 10.85 10.73C11.92 13.51 12.37 15.84 12.48 16.5C11.57 16.89 10.56 17.11 9.5 17.11ZM13.76 15.81C13.69 15.35 13.28 13.12 12.28 10.38C14.74 9.98 16.88 10.66 17.04 10.71C16.7 12.83 15.48 14.66 13.76 15.81ZM11.82 9.17C11.76 9.04 11.71 8.91 11.65 8.78C11.49 8.41 11.32 8.04 11.14 7.68C14.16 6.45 15.38 4.69 15.4 4.67C16.47 5.96 17.11 7.62 17.13 9.42C17.02 9.4 14.44 8.85 11.82 9.17ZM7.67 2.11C7.66 2.12 7.65 2.12 7.65 2.12C7.66 2.12 7.67 2.12 7.67 2.12L7.67 2.11ZM4.81 15.5C4.81 15.5 4.81 15.49 4.81 15.49C4.76 15.44 4.69 15.41 4.64 15.36C4.74 15.44 4.81 15.5 4.81 15.5Z" />
			</g>
		</g>
	</g>
</svg>