<svg xmlns="http://www.w3.org/2000/svg" viewBox="0 0 18 18" width="18" height="18">
	<style>
		tspan { white-space:pre }
		.shp0 { fill: #ffffff } 
	</style>
	<g id="Footer">
		<g id="Forth Column">
			<g id="Social Icons">
				<path id="Google" class="shp0" d="M11.43 0.09L6.16 0.09C3.49 0.09 1.26 2.06 1.26 4.22C1.26 6.43 2.72 8.19 5.24 8.19C5.41 8.19 5.58 8.18 5.75 8.16C5.59 8.48 5.47 8.83 5.47 9.19C5.47 9.8 5.81 10.15 6.23 10.56C5.91 10.56 5.61 10.57 5.27 10.57C2.21 10.57 0.07 12.66 0.07 14.68C0.07 16.66 2.65 17.91 5.71 17.91C9.2 17.91 11.35 15.93 11.35 13.95C11.35 12.36 11 11.56 9.3 10.29C8.81 9.92 7.75 9.17 7.75 8.67C7.75 8.08 7.92 7.79 8.81 7.1C9.72 6.39 10.37 5.45 10.37 4.29C10.37 3.03 9.85 1.88 8.87 1.32L10.25 1.32L11.43 0.09ZM9.65 13.61C9.69 13.79 9.71 13.98 9.71 14.17C9.71 15.77 8.68 17.03 5.7 17.03C3.58 17.03 2.06 15.69 2.06 14.09C2.06 12.52 3.85 11.16 5.97 11.19C6.46 11.19 6.92 11.27 7.34 11.41C8.49 12.2 9.41 12.7 9.65 13.61ZM6.26 7.38C4.83 7.34 3.49 6.04 3.24 4.18C2.99 2.33 3.95 0.9 5.37 0.95C6.79 0.99 8 2.51 8.25 4.37C8.49 6.23 7.68 7.42 6.26 7.38ZM15.5 2.76L15.5 0.33L14.29 0.33L14.29 2.76L11.86 2.76L11.86 3.97L14.29 3.97L14.29 6.39L15.5 6.39L15.5 3.97L17.93 3.97L17.93 2.76L15.5 2.76Z" />
			</g>
		</g>
	</g>
</svg>