<svg xmlns="http://www.w3.org/2000/svg" viewBox="0 0 19 16" width="19" height="16">
	<style>
		tspan { white-space:pre }
		.shp0 { fill: #ffffff } 
	</style>
	<g id="Footer">
		<g id="Forth Column">
			<g id="Social Icons">
				<path id="Twitter" class="shp0" d="M0.56 13.6C2.18 14.63 4.11 15.24 6.18 15.24C12.93 15.24 16.62 9.67 16.62 4.84C16.62 4.68 16.62 4.52 16.61 4.37C17.33 3.85 17.95 3.21 18.44 2.47C17.78 2.77 17.08 2.96 16.33 3.05C17.09 2.6 17.67 1.88 17.95 1.03C17.24 1.45 16.45 1.75 15.62 1.91C14.95 1.2 13.99 0.76 12.94 0.76C10.91 0.76 9.27 2.4 9.27 4.42C9.27 4.7 9.3 4.98 9.37 5.25C6.32 5.1 3.61 3.64 1.81 1.43C1.49 1.97 1.31 2.6 1.31 3.27C1.31 4.53 1.96 5.65 2.94 6.31C2.34 6.29 1.77 6.13 1.28 5.85L1.28 5.9C1.28 7.67 2.54 9.15 4.22 9.48C3.91 9.57 3.59 9.61 3.25 9.61C3.02 9.61 2.79 9.59 2.56 9.54C3.03 11 4.39 12.05 5.99 12.08C4.73 13.06 3.15 13.65 1.43 13.65C1.14 13.65 0.85 13.63 0.56 13.6Z" />
			</g>
		</g>
	</g>
</svg>